<mxfile host="app.diagrams.net" agent="Mozilla/5.0 (Windows NT 10.0; Win64; x64) AppleWebKit/537.36 (KHTML, like Gecko) Chrome/126.0.0.0 Safari/537.36 OPR/112.0.0.0 (Edition std-1)" version="24.7.10">
  <diagram name="Página-1" id="dj_3whlYh34nZps6kCAb">
    <mxGraphModel grid="1" page="1" gridSize="10" guides="1" tooltips="1" connect="1" arrows="1" fold="1" pageScale="1" pageWidth="827" pageHeight="1169" math="0" shadow="0">
      <root>
        <mxCell id="0" />
        <mxCell id="1" parent="0" />
        <mxCell id="3spAERW8DKGB1FqYyETx-5" value="" style="rounded=0;whiteSpace=wrap;html=1;" vertex="1" parent="1">
          <mxGeometry x="180" y="160" width="640" height="360" as="geometry" />
        </mxCell>
        <mxCell id="3spAERW8DKGB1FqYyETx-12" style="edgeStyle=none;rounded=0;orthogonalLoop=1;jettySize=auto;html=1;exitX=0.5;exitY=0.5;exitDx=0;exitDy=0;exitPerimeter=0;entryX=0;entryY=0.5;entryDx=0;entryDy=0;" edge="1" parent="1" source="3spAERW8DKGB1FqYyETx-1" target="3spAERW8DKGB1FqYyETx-6">
          <mxGeometry relative="1" as="geometry" />
        </mxCell>
        <mxCell id="3spAERW8DKGB1FqYyETx-1" value="Usuario Alumno" style="shape=umlActor;verticalLabelPosition=bottom;verticalAlign=top;html=1;outlineConnect=0;" vertex="1" parent="1">
          <mxGeometry x="110" y="290" width="30" height="60" as="geometry" />
        </mxCell>
        <mxCell id="3spAERW8DKGB1FqYyETx-11" style="edgeStyle=none;rounded=0;orthogonalLoop=1;jettySize=auto;html=1;exitX=1;exitY=0.5;exitDx=0;exitDy=0;entryX=0;entryY=0.5;entryDx=0;entryDy=0;" edge="1" parent="1" source="3spAERW8DKGB1FqYyETx-6" target="3spAERW8DKGB1FqYyETx-7">
          <mxGeometry relative="1" as="geometry" />
        </mxCell>
        <mxCell id="3spAERW8DKGB1FqYyETx-16" value="&amp;lt;&amp;lt;includes&amp;gt;&amp;gt;" style="edgeLabel;html=1;align=center;verticalAlign=middle;resizable=0;points=[];" connectable="0" vertex="1" parent="3spAERW8DKGB1FqYyETx-11">
          <mxGeometry x="-0.16" y="1" relative="1" as="geometry">
            <mxPoint as="offset" />
          </mxGeometry>
        </mxCell>
        <mxCell id="3spAERW8DKGB1FqYyETx-6" value="Ver listado de eventos próximos" style="ellipse;whiteSpace=wrap;html=1;" vertex="1" parent="1">
          <mxGeometry x="190" y="280" width="120" height="80" as="geometry" />
        </mxCell>
        <mxCell id="3spAERW8DKGB1FqYyETx-13" style="edgeStyle=none;rounded=0;orthogonalLoop=1;jettySize=auto;html=1;exitX=1;exitY=0.5;exitDx=0;exitDy=0;entryX=0;entryY=0.5;entryDx=0;entryDy=0;" edge="1" parent="1" source="3spAERW8DKGB1FqYyETx-7" target="3spAERW8DKGB1FqYyETx-8">
          <mxGeometry relative="1" as="geometry" />
        </mxCell>
        <mxCell id="3spAERW8DKGB1FqYyETx-17" value="&amp;lt;&amp;lt;extends&amp;gt;&amp;gt;" style="edgeLabel;html=1;align=center;verticalAlign=middle;resizable=0;points=[];" connectable="0" vertex="1" parent="3spAERW8DKGB1FqYyETx-13">
          <mxGeometry x="0.0218" y="3" relative="1" as="geometry">
            <mxPoint as="offset" />
          </mxGeometry>
        </mxCell>
        <mxCell id="3spAERW8DKGB1FqYyETx-14" style="edgeStyle=none;rounded=0;orthogonalLoop=1;jettySize=auto;html=1;exitX=1;exitY=0.5;exitDx=0;exitDy=0;entryX=0;entryY=0.5;entryDx=0;entryDy=0;" edge="1" parent="1" source="3spAERW8DKGB1FqYyETx-7" target="3spAERW8DKGB1FqYyETx-9">
          <mxGeometry relative="1" as="geometry" />
        </mxCell>
        <mxCell id="3spAERW8DKGB1FqYyETx-18" value="&amp;lt;&amp;lt;extends&amp;gt;&amp;gt;" style="edgeLabel;html=1;align=center;verticalAlign=middle;resizable=0;points=[];" connectable="0" vertex="1" parent="3spAERW8DKGB1FqYyETx-14">
          <mxGeometry x="-0.1189" y="1" relative="1" as="geometry">
            <mxPoint as="offset" />
          </mxGeometry>
        </mxCell>
        <mxCell id="3spAERW8DKGB1FqYyETx-15" style="edgeStyle=none;rounded=0;orthogonalLoop=1;jettySize=auto;html=1;exitX=1;exitY=0.5;exitDx=0;exitDy=0;entryX=0;entryY=0.5;entryDx=0;entryDy=0;" edge="1" parent="1" source="3spAERW8DKGB1FqYyETx-7" target="3spAERW8DKGB1FqYyETx-10">
          <mxGeometry relative="1" as="geometry" />
        </mxCell>
        <mxCell id="3spAERW8DKGB1FqYyETx-19" value="&amp;lt;&amp;lt;extends&amp;gt;&amp;gt;" style="edgeLabel;html=1;align=center;verticalAlign=middle;resizable=0;points=[];" connectable="0" vertex="1" parent="3spAERW8DKGB1FqYyETx-15">
          <mxGeometry x="-0.0272" y="-2" relative="1" as="geometry">
            <mxPoint as="offset" />
          </mxGeometry>
        </mxCell>
        <mxCell id="3spAERW8DKGB1FqYyETx-7" value="Filtrar por intereses" style="ellipse;whiteSpace=wrap;html=1;" vertex="1" parent="1">
          <mxGeometry x="400" y="280" width="120" height="80" as="geometry" />
        </mxCell>
        <mxCell id="3spAERW8DKGB1FqYyETx-8" value="Seleccionar por tipo de deporte" style="ellipse;whiteSpace=wrap;html=1;" vertex="1" parent="1">
          <mxGeometry x="640" y="210" width="120" height="80" as="geometry" />
        </mxCell>
        <mxCell id="3spAERW8DKGB1FqYyETx-9" value="Filtrar por ubicación" style="ellipse;whiteSpace=wrap;html=1;" vertex="1" parent="1">
          <mxGeometry x="640" y="300" width="120" height="80" as="geometry" />
        </mxCell>
        <mxCell id="3spAERW8DKGB1FqYyETx-10" value="Filtrar por categoría" style="ellipse;whiteSpace=wrap;html=1;" vertex="1" parent="1">
          <mxGeometry x="640" y="390" width="120" height="80" as="geometry" />
        </mxCell>
      </root>
    </mxGraphModel>
  </diagram>
</mxfile>
